<svg xmlns="http://www.w3.org/2000/svg" xmlns:xlink="http://www.w3.org/1999/xlink" viewBox="0 0 12.89 15.57"><defs><style>.cls-1{opacity:0.75;}.cls-2{fill:url(#radial-gradient);}</style><radialGradient id="radial-gradient" cx="6.45" cy="7.79" r="7.15" gradientTransform="translate(0 1.06) scale(1 0.86)" gradientUnits="userSpaceOnUse"><stop offset="0" stop-color="#cce0f4"/><stop offset="0.06" stop-color="#c3dcf2"/><stop offset="0.17" stop-color="#a9d2ee"/><stop offset="0.31" stop-color="#80c2e7"/><stop offset="0.46" stop-color="#47acde"/><stop offset="0.57" stop-color="#1e9cd7"/><stop offset="0.87" stop-color="#0075be"/><stop offset="0.99" stop-color="#005b97"/></radialGradient></defs><g id="Layer_2" data-name="Layer 2"><g id="Layer_1-2" data-name="Layer 1"><g class="cls-1"><path class="cls-2" d="M1,1.2l.82.14.7.6.8.89.22,1.28.09,2,0,2.69v3.51H6.6l1.78.42.11,0h2.67l-.58,1-1.12.44,0,0h0l-.65.31H7.5C6,14.5,4.16,14.37,3.86,14.3A6,6,0,0,1,3,13.88l-.71-.75-.92-1.36L1,10.4V1.2M0,0V10.54l.48,1.65,1.05,1.57.86.91a7.41,7.41,0,0,0,1.14.57c.48.17,3.92.33,3.92.33H9l.86-.41,1.43-.57,1.62-2.81H8.61l-1.9-.45H4.65V8.82l0-2.69L4.54,4,4.26,2.37l-1-1.14L2.27.41,0,0Z"/></g></g></g></svg>