<svg xmlns="http://www.w3.org/2000/svg" xmlns:xlink="http://www.w3.org/1999/xlink" viewBox="0 0 17.55 22.12"><defs><style>.cls-1{opacity:0.55;}.cls-2{fill:url(#radial-gradient);}</style><radialGradient id="radial-gradient" cx="8.78" cy="11.06" r="9.98" gradientTransform="translate(1.05 0.6) rotate(6) scale(1 0.87)" gradientUnits="userSpaceOnUse"><stop offset="0" stop-color="#cce0f4"/><stop offset="0.06" stop-color="#c3dcf2"/><stop offset="0.17" stop-color="#a9d2ee"/><stop offset="0.31" stop-color="#80c2e7"/><stop offset="0.46" stop-color="#47acde"/><stop offset="0.57" stop-color="#1e9cd7"/><stop offset="0.87" stop-color="#0075be"/><stop offset="0.99" stop-color="#005b97"/></radialGradient></defs><g id="Layer_2" data-name="Layer 2"><g id="Layer_1-2" data-name="Layer 1"><g class="cls-1"><path class="cls-2" d="M10.08,4.49v0L10.21,6l.51-.27L9.9,7l2.67-.89.5-.17,0,1.38.28-.1,0,.07-.16.37.14.38.05.13c-.44.07-1.47.26-4,.76l.09-.26.08-.25-.05-.25-.13-.72,0-.07,0-.08L9,6.57l-.07-.28.12-.65.49-.49,0,0,0,0,.48-.59m-6.54,14L2.25,21l-.34,0,1.63-2.55M15.25,0,11.94,1.35,9.87,3.17l-1,1.28-.71.71L7.91,6.32,8,6.85l.29.83.14.72-.24.74-.4.76L0,22.12l2.89-.18L8.52,10.87,9,10.05s4.51-.88,4.73-.89a5.54,5.54,0,0,0,1-.37l.87-.47-1.15-.05-.19-.53s.38-.88.6-1,.57-.52.57-.52l.95-.54.05.6.05.6,0,.6.69-.89.37-1L16.73,5l-1,.06-.87.6-.81.29V5.15l1.29-1-3.11,1,.6-.94,1.21-1,1.21-1.1-4.2,2.26L11,3.83l1.05-.73,1-1.16,1-.72L15.25,0Z"/></g></g></g></svg>