<svg xmlns="http://www.w3.org/2000/svg" xmlns:xlink="http://www.w3.org/1999/xlink" viewBox="0 0 5.29 8.44"><defs><style>.cls-1{opacity:0.55;}.cls-2{fill:#002a5c;}.cls-3{fill:url(#radial-gradient);}</style><radialGradient id="radial-gradient" cx="2.64" cy="4.22" r="3.52" gradientTransform="translate(0 -0.49) scale(1 1.12)" gradientUnits="userSpaceOnUse"><stop offset="0" stop-color="#cce0f4"/><stop offset="0.06" stop-color="#c3dcf2"/><stop offset="0.17" stop-color="#a9d2ee"/><stop offset="0.31" stop-color="#80c2e7"/><stop offset="0.46" stop-color="#47acde"/><stop offset="0.57" stop-color="#1e9cd7"/><stop offset="0.87" stop-color="#0075be"/><stop offset="0.99" stop-color="#005b97"/></radialGradient></defs><g id="Layer_2" data-name="Layer 2"><g id="Layer_1-2" data-name="Layer 1"><g class="cls-1"><path class="cls-2" d="M0,0V5.77l.2.88.43.82L1,8a3,3,0,0,0,.47.3,12.58,12.58,0,0,0,1.6.18h.63L4,8.22l.59-.31.67-1.48H3.76L2.94,6.2H2.07V4.82L2,3.35,2,2.19l-.12-.9L1.41.67,1,.22Z"/><path class="cls-3" d="M1,2.64l0,.74,0,1.44V6L1,5.66v-3M2.8,7.2l.68.19-.08.05H3.09c-.48,0-1-.08-1.28-.12L1.7,7.24l0,0H2.8M0,0V5.77l.2.88.43.82L1,8a3,3,0,0,0,.47.3,12.58,12.58,0,0,0,1.6.18h.63L4,8.22l.59-.31.67-1.48H3.76L2.94,6.2H2.07V4.82L2,3.35,2,2.19l-.12-.9L1.41.67,1,.22,0,0Z"/></g></g></g></svg>