<svg xmlns="http://www.w3.org/2000/svg" xmlns:xlink="http://www.w3.org/1999/xlink" viewBox="0 0 7.23 25.43"><defs><style>.cls-1{opacity:0.55;}.cls-2{fill:url(#radial-gradient);}</style><radialGradient id="radial-gradient" cx="3.62" cy="12.71" r="9.35" gradientTransform="translate(0 1.73) scale(1 0.86)" gradientUnits="userSpaceOnUse"><stop offset="0" stop-color="#cce0f4"/><stop offset="0.06" stop-color="#c3dcf2"/><stop offset="0.17" stop-color="#a9d2ee"/><stop offset="0.31" stop-color="#80c2e7"/><stop offset="0.46" stop-color="#47acde"/><stop offset="0.57" stop-color="#1e9cd7"/><stop offset="0.87" stop-color="#0075be"/><stop offset="0.99" stop-color="#005b97"/></radialGradient></defs><g id="Layer_2" data-name="Layer 2"><g id="Layer_1-2" data-name="Layer 1"><g class="cls-1"><path class="cls-2" d="M3.62,1A2.92,2.92,0,0,1,6.23,4.15c0,.45-.3.68-1.28,1.17s-2.43,1.23-2.33,3a90,90,0,0,1-.18,13.84A161.92,161.92,0,0,1,1,4.14C1,2.65,2.11,1,3.62,1m0-1C1.49,0,0,2.16,0,4.15.66,19.59,1.7,25.43,2.52,25.43S4.11,17.86,3.62,8.3C3.5,6,7.23,6.44,7.23,4.15A3.91,3.91,0,0,0,3.62,0Z"/></g></g></g></svg>