<svg xmlns="http://www.w3.org/2000/svg" xmlns:xlink="http://www.w3.org/1999/xlink" viewBox="0 0 9.86 11.79"><defs><style>.cls-1{opacity:0.55;}.cls-2{fill:#002a5c;}.cls-3{fill:url(#radial-gradient);}</style><radialGradient id="radial-gradient" cx="4.93" cy="5.89" r="5.43" gradientTransform="translate(0 0.8) scale(1 0.86)" gradientUnits="userSpaceOnUse"><stop offset="0" stop-color="#cce0f4"/><stop offset="0.06" stop-color="#c3dcf2"/><stop offset="0.17" stop-color="#a9d2ee"/><stop offset="0.31" stop-color="#80c2e7"/><stop offset="0.46" stop-color="#47acde"/><stop offset="0.57" stop-color="#1e9cd7"/><stop offset="0.87" stop-color="#0075be"/><stop offset="0.99" stop-color="#005b97"/></radialGradient></defs><g id="Layer_2" data-name="Layer 2"><g id="Layer_1-2" data-name="Layer 1"><g class="cls-1"><path class="cls-2" d="M0,0V7.94L.37,9.2l.8,1.2.66.69a5.26,5.26,0,0,0,.87.44c.37.13,3,.26,3,.26H6.86l.66-.32L8.62,11,9.86,8.89H6.62L5.18,8.66H3.62V6.72l0-2L3.52,3.05,3.3,1.8,2.51.93,1.79.31Z"/><path class="cls-3" d="M1,1.19l.35.06.46.4.56.61.15.9.07,1.52,0,2V9.66H5.1l1.37.21.07,0H8.12l-.2.34-.77.31,0,0h0l-.45.22h-.9c-1.11-.06-2.49-.15-2.71-.2a4.24,4.24,0,0,1-.57-.28L2,9.77l-.67-1L1,7.8V1.19M0,0V7.94L.37,9.2l.8,1.2.66.69a5.26,5.26,0,0,0,.87.44c.37.13,3,.26,3,.26H6.86l.66-.32L8.62,11,9.86,8.89H6.62L5.18,8.66H3.62V6.72l0-2L3.52,3.05,3.3,1.8,2.51.93,1.79.31,0,0Z"/></g></g></g></svg>