<svg xmlns="http://www.w3.org/2000/svg" xmlns:xlink="http://www.w3.org/1999/xlink" viewBox="0 0 7.05 11.32"><defs><style>.cls-1{opacity:0.75;}.cls-2{fill:url(#radial-gradient);}</style><radialGradient id="radial-gradient" cx="3.52" cy="5.66" r="4.71" gradientTransform="translate(0 -0.65) scale(1 1.12)" gradientUnits="userSpaceOnUse"><stop offset="0" stop-color="#cce0f4"/><stop offset="0.06" stop-color="#c3dcf2"/><stop offset="0.17" stop-color="#a9d2ee"/><stop offset="0.31" stop-color="#80c2e7"/><stop offset="0.46" stop-color="#47acde"/><stop offset="0.57" stop-color="#1e9cd7"/><stop offset="0.87" stop-color="#0075be"/><stop offset="0.99" stop-color="#005b97"/></radialGradient></defs><g id="Layer_2" data-name="Layer 2"><g id="Layer_1-2" data-name="Layer 1"><g class="cls-1"><path class="cls-2" d="M1,1.52H1l.42.59.12.9.05,1.47V9.31l-.37-.73L1,7.66V1.52m2.66,7.9,1,.2.11,0H5.5l-.11.25-.47.25,0,0,0,0-.23.14H4.1c-.69-.05-1.54-.12-1.81-.17L2,10l-.34-.46-.05-.09h2M0,0V7.77L.26,8.93.84,10l.47.64a3.45,3.45,0,0,0,.62.4,17,17,0,0,0,2.14.24h.84L5.38,11l.78-.41.89-2H4.84L3.77,8.42H2.58V4.48l0-1.55-.17-1.2L1.79.9,1.25.3,0,0Z"/></g></g></g></svg>