<svg xmlns="http://www.w3.org/2000/svg" xmlns:xlink="http://www.w3.org/1999/xlink" viewBox="0 0 4.08 9.52"><defs><style>.cls-1{opacity:0.55;}.cls-2{fill:#002a5c;}.cls-3{fill:url(#radial-gradient);}</style><radialGradient id="radial-gradient" cx="2.04" cy="4.76" r="3.66" gradientTransform="translate(0 0.65) scale(1 0.86)" gradientUnits="userSpaceOnUse"><stop offset="0" stop-color="#cce0f4"/><stop offset="0.06" stop-color="#c3dcf2"/><stop offset="0.17" stop-color="#a9d2ee"/><stop offset="0.31" stop-color="#80c2e7"/><stop offset="0.46" stop-color="#47acde"/><stop offset="0.57" stop-color="#1e9cd7"/><stop offset="0.87" stop-color="#0075be"/><stop offset="0.99" stop-color="#005b97"/></radialGradient></defs><g id="Layer_2" data-name="Layer 2"><g id="Layer_1-2" data-name="Layer 1"><g class="cls-1"><path class="cls-2" d="M4.08,6.5,0,9.52S.43,7.42,1,5.2C2.18.68,4-4.37,4.08,6.5Z"/><path class="cls-3" d="M2.9,2.35C3,3.13,3.05,4.3,3.07,6L1.56,7.12C1.69,6.6,1.83,6,2,5.45,2.35,4,2.65,3,2.9,2.35M3.15,0C2.51,0,1.66,2.68,1,5.2.43,7.42,0,9.52,0,9.52l4.08-3C4,1.69,3.66,0,3.15,0Z"/></g></g></g></svg>