<svg xmlns="http://www.w3.org/2000/svg" xmlns:xlink="http://www.w3.org/1999/xlink" viewBox="0 0 14.76 18.6"><defs><style>.cls-1{opacity:0.55;}.cls-2{fill:#002a5c;}.cls-3{fill:url(#radial-gradient);}</style><radialGradient id="radial-gradient" cx="7.38" cy="9.3" r="8.4" gradientTransform="translate(2.3 -0.52) rotate(14.54) scale(1 0.89)" gradientUnits="userSpaceOnUse"><stop offset="0" stop-color="#cce0f4"/><stop offset="0.06" stop-color="#c3dcf2"/><stop offset="0.17" stop-color="#a9d2ee"/><stop offset="0.31" stop-color="#80c2e7"/><stop offset="0.46" stop-color="#47acde"/><stop offset="0.57" stop-color="#1e9cd7"/><stop offset="0.87" stop-color="#0075be"/><stop offset="0.99" stop-color="#005b97"/></radialGradient></defs><g id="Layer_2" data-name="Layer 2"><g id="Layer_1-2" data-name="Layer 1"><g class="cls-1"><path class="cls-2" d="M2.43,18.45,7.17,9.14l.39-.68s3.79-.75,4-.76a4.19,4.19,0,0,0,.81-.31l.74-.4-1,0L12,6.51s.32-.74.51-.8.47-.43.47-.43l.8-.46,0,.5.05.51,0,.5.58-.75.31-.82-.69-.57-.83,0-.73.5L11.83,5V4.33l1.08-.83-2.61.87.5-.79,1-.83,1-.92L9.32,3.72l-.05-.5.89-.62.87-1L11.88,1l.94-1L10,1.14,8.3,2.67,7.42,3.74l-.59.6-.17,1,.1.45.25.7.11.6-.2.62-.33.65L0,18.6Z"/><path class="cls-3" d="M8.35,4.19l.1,1.14.1-.06L8,6.18l0-.06-.23-.64,0-.19.08-.47.37-.37,0,0,0,0,.15-.18m2.48,1.06,0,1.17.11,0,0,.09.11.31-2.9.55.06-.2,0-.26L8,6.27V6.21l2.64-.89.21-.07m2-5.25L10,1.14,8.3,2.67,7.42,3.74l-.59.6-.17,1,.1.45.25.7.11.6-.2.62-.33.65L0,18.6l2.43-.15L7.17,9.14l.39-.68s3.79-.75,4-.76a4.19,4.19,0,0,0,.81-.31l.74-.4-1,0L12,6.51s.32-.74.51-.8.47-.43.47-.43l.8-.46,0,.5.05.51,0,.5.58-.75.31-.82-.69-.57-.83,0-.73.5L11.83,5V4.33l1.08-.83-2.61.87.5-.79,1-.83,1-.92L9.32,3.72l-.05-.5.89-.62.87-1L11.88,1l.94-1Z"/></g></g></g></svg>